HIERARCHY
ROOT Hips
{
	OFFSET 0.00000 0.00000 0.00000
	CHANNELS 6 Xposition Yposition Zposition Zrotation Yrotation Xrotation 
	JOINT LHipJoint
	{
		OFFSET 0 0 0
		CHANNELS 3 Zrotation Yrotation Xrotation
		JOINT LeftHip
		{
			OFFSET 1.58161 -1.81893 0.78828
			CHANNELS 3 Zrotation Yrotation Xrotation
			JOINT LeftKnee
			{
				OFFSET 2.53374 -6.96141 0.00000
				CHANNELS 3 Zrotation Yrotation Xrotation
				JOINT LeftAnkle
				{
					OFFSET 2.63509 -7.23986 0.00000
					CHANNELS 3 Zrotation Yrotation Xrotation
					JOINT LeftToe
					{
						OFFSET 0.14115 -0.38781 2.05350
						CHANNELS 3 Zrotation Yrotation Xrotation
						End Site
						{
							OFFSET 0.00000 -0.00000 1.05543
						}
					}
				}
			}
		}
	}
	JOINT RHipJoint
	{
		OFFSET 0 0 0
		CHANNELS 3 Zrotation Yrotation Xrotation
		JOINT RightHip
		{
			OFFSET -1.11138 -1.81893 0.78828
			CHANNELS 3 Zrotation Yrotation Xrotation
			JOINT RightKnee
			{
				OFFSET -2.58392 -7.09926 0.00000
				CHANNELS 3 Zrotation Yrotation Xrotation
				JOINT RightAnkle
				{
					OFFSET -2.66423 -7.31992 0.00000
					CHANNELS 3 Zrotation Yrotation Xrotation
					JOINT RightToe
					{
						OFFSET -0.18831 -0.51739 2.12114
						CHANNELS 3 Zrotation Yrotation Xrotation
						End Site
						{
							OFFSET -0.00000 -0.00000 1.09845
						}
					}
				}
			}
		}
	}
	JOINT lowerback
	{
		OFFSET 0 0 0
		CHANNELS 3 Zrotation Yrotation Xrotation
		JOINT Chest
		{
			OFFSET -0.01511 1.97958 -0.08829
			CHANNELS 3 Zrotation Yrotation Xrotation
			JOINT Chest2
			{
				OFFSET 0.08344 1.97334 -0.04330
				CHANNELS 3 Zrotation Yrotation Xrotation
				JOINT lowerneck
				{
					OFFSET 0 0 0
					CHANNELS 3 Zrotation Yrotation Xrotation
					JOINT Neck
					{
						OFFSET 0.00559 1.76246 0.31246
						CHANNELS 3 Zrotation Yrotation Xrotation
						JOINT Head
						{
							OFFSET -0.07011 1.80354 -0.30524
							CHANNELS 3 Zrotation Yrotation Xrotation
							End Site
							{
								OFFSET -0.02385 1.83547 -0.13906
							}
						}
					}
				}
				JOINT LeftCollar
				{
					OFFSET 0 0 0
					CHANNELS 3 Zrotation Yrotation Xrotation
					JOINT LeftShoulder
					{
						OFFSET 3.20667 1.30156 -0.60240
CHANNELS 3 Zrotation Xrotation Yrotation
						JOINT LeftElbow
						{
OFFSET 0 -4.956630 0.000000
CHANNELS 3 Zrotation Xrotation Yrotation
							JOINT LeftWrist
							{
OFFSET 0 -3.381770 0.000000
CHANNELS 3 Zrotation Xrotation Yrotation
								JOINT lhand
								{
									OFFSET 0 0 0
CHANNELS 3 Zrotation Xrotation Yrotation
									JOINT LFingers
									{
OFFSET 0 -0.662910 0.000000
CHANNELS 3 Zrotation Xrotation Yrotation
										End Site
										{
OFFSET 0 -0.534450 0.000000
										}
									}
								}
								JOINT LThumb
								{
OFFSET 0 0.000000 0.000000
CHANNELS 3 Zrotation Xrotation Yrotation
									End Site
									{
OFFSET 0 -0.542610 0.542610
									}
								}
							}
						}
					}
				}
				JOINT RightCollar
				{
					OFFSET 0 0 0
					CHANNELS 3 Zrotation Yrotation Xrotation
					JOINT RightShoulder
					{
						OFFSET -3.06877 1.34672 -0.60964
CHANNELS 3 Zrotation Xrotation Yrotation
						JOINT RightElbow
						{
OFFSET 0 -5.083650 0.000000
CHANNELS 3 Zrotation Xrotation Yrotation
							JOINT RightWrist
							{
OFFSET 0 -3.359840 0.000000
CHANNELS 3 Zrotation Xrotation Yrotation
								JOINT rhand
								{
									OFFSET 0 0 0
CHANNELS 3 Zrotation Xrotation Yrotation
									JOINT RFingers
									{
OFFSET 0 -0.820760 0.000000
CHANNELS 3 Zrotation Xrotation Yrotation
										End Site
										{
OFFSET 0 -0.661720 0.000000
										}
									}
								}
								JOINT RThumb
								{
OFFSET 0 0.000000 0.000000
CHANNELS 3 Zrotation Xrotation Yrotation
									End Site
									{
OFFSET 0 -0.671820 0.671820
									}
								}
							}
						}
					}
				}
			}
		}
	}
}
MOTION
Frames: 11
Frame Time: 0.008333333333333333
1.617000 18.168300 -8.647700 -2.308800 -6.312800 8.421900 0.000000 0.000000 0.000000 -17.049400 -0.247700 -9.524100 1.140100 6.780700 19.067200 0.602900 -0.955800 -14.372100 0.137600 -2.390500 -6.586200 0.000000 0.000000 0.000000 18.148500 2.818600 -14.023500 -1.607900 -7.996600 22.703800 -0.403900 -4.462400 -14.480800 -0.001900 -0.283100 0.777800 -6.188100 -1.258700 -7.472200 3.658200 -1.307100 -0.942100 7.209500 -0.761900 3.441900 -6.507300 -10.382900 -14.881100 -0.893200 -12.682800 21.323000 -0.882400 -6.534600 9.551400 -0.000000 0.000000 0.000000 -1.046100 -3.340700 -0.171600 10.560500 -17.611600 1.640500 9.171400 8.313500 -33.987400 0.000000 0.000000 0.000000 -7.125000 0.000000 0.000000 -28.292600 62.068700 12.272900 -0.000000 0.000000 0.000000 -5.357300 -0.878800 24.362300 -13.188200 -21.562400 -2.522000 -24.285300 -15.776400 -14.489200 0.000000 0.000000 0.000000 7.125000 0.000000 -0.000000 2.182500 14.159700 1.583400
1.619491 18.168567 -8.650636 -2.354092 -6.336113 8.439785 0.000000 0.000000 0.000000 -17.010070 -0.251704 -9.557468 1.142858 6.788797 19.091047 0.599608 -0.887907 -14.350299 0.151748 -2.509824 -6.917034 0.000000 0.000000 0.000000 18.190766 3.010889 -13.946442 -1.601226 -7.980761 22.655750 -0.396337 -4.620609 -14.495304 -0.001633 -0.259164 0.712043 -6.160071 -1.266263 -7.421747 3.691835 -1.323473 -0.949485 7.228008 -0.768485 3.408799 -6.573324 -10.349532 -14.899074 -0.888306 -12.620424 21.365800 -0.865493 -6.509952 9.573556 0.000000 0.000000 0.000000 -1.108031 -3.351200 -0.011433 10.544661 -17.586952 1.635695 9.099147 8.367512 -33.943087 0.000000 0.000000 0.000000 -7.125000 0.000000 0.000000 -28.322587 62.012286 12.249320 0.000000 0.000000 0.000000 -5.408553 -0.887253 24.345305 -13.197098 -21.575302 -2.525292 -24.296245 -15.547005 -14.465709 0.000000 0.000000 0.000000 7.125000 0.000000 0.000000 2.173513 14.183903 1.575748
1.623230 18.169614 -8.652169 -2.401644 -6.412441 8.460165 0.000000 0.000000 0.000000 -16.982435 -0.190375 -9.605493 1.145305 6.795725 19.111464 0.599902 -0.861413 -14.361945 0.165194 -2.618078 -7.217228 0.000000 0.000000 0.000000 18.219545 3.101748 -13.927388 -1.597515 -7.971939 22.628984 -0.387682 -4.662575 -14.407208 -0.000509 0.006146 -0.016870 -6.094307 -1.226815 -7.416591 3.673936 -1.275604 -0.938394 7.175804 -0.743728 3.407429 -6.533007 -10.331445 -14.902002 -0.876473 -12.608022 21.379208 -0.866285 -6.499727 9.576222 0.000000 0.000000 0.000000 -1.075393 -3.396783 -0.007271 10.525236 -17.556925 1.629798 9.049191 8.428073 -34.033807 0.000000 0.000000 0.000000 -7.125000 0.000000 0.000000 -28.466946 62.078040 12.361786 0.000000 0.000000 0.000000 -5.349489 -0.938898 24.207466 -13.134738 -21.484280 -2.502389 -24.295651 -15.608570 -14.630811 0.000000 0.000000 0.000000 7.125000 0.000000 0.000000 2.185264 14.005324 1.592654
1.627480 18.169565 -8.653103 -2.412897 -6.483877 8.435443 0.000000 0.000000 0.000000 -16.994945 -0.128047 -9.610335 1.148846 6.805768 19.141237 0.604050 -0.875045 -14.408644 0.176600 -2.706759 -7.463352 0.000000 0.000000 0.000000 18.208861 3.076382 -13.900332 -1.592549 -7.960159 22.593176 -0.378538 -4.654105 -14.273148 -0.004551 0.379611 -1.043152 -6.055545 -1.177308 -7.376599 3.632420 -1.212898 -0.910699 7.115748 -0.712132 3.401639 -6.761574 -10.307751 -15.141327 -0.485622 -12.604759 21.734701 -0.729327 -6.467441 9.790959 0.000000 0.000000 0.000000 -1.019482 -3.380581 -0.159581 10.539848 -17.579559 1.634258 9.094235 8.395167 -34.026256 0.000000 0.000000 0.000000 -7.125000 0.000000 0.000000 -28.412442 62.082868 12.339170 0.000000 0.000000 0.000000 -5.277578 -0.981384 24.095594 -13.076834 -21.399657 -2.481273 -24.368606 -15.757313 -14.737278 0.000000 0.000000 0.000000 7.125000 0.000000 0.000000 2.143311 13.880896 1.567642
1.631113 18.169903 -8.655134 -2.412768 -6.501797 8.409515 0.000000 0.000000 0.000000 -17.007488 -0.125810 -9.610347 1.153544 6.819128 19.180736 0.607398 -0.891123 -14.444744 0.186696 -2.782801 -7.674535 0.000000 0.000000 0.000000 18.195378 3.033024 -13.873759 -1.586082 -7.944786 22.546410 -0.373143 -4.642606 -14.188964 -0.006756 0.530644 -1.458136 -6.036991 -1.155983 -7.306869 3.605716 -1.188285 -0.892101 7.079327 -0.698981 3.376812 -6.882654 -10.278538 -15.301848 -0.296046 -12.572984 21.941202 -0.660853 -6.437959 9.915232 0.000000 0.000000 0.000000 -1.003820 -3.336479 -0.257879 10.566949 -17.621513 1.642457 9.110511 8.352497 -33.947693 0.000000 0.000000 0.000000 -7.125000 0.000000 0.000000 -28.315622 62.019118 12.250660 0.000000 0.000000 0.000000 -5.247229 -0.995468 24.053875 -13.057324 -21.371136 -2.474156 -24.496116 -15.809867 -14.707342 0.000000 0.000000 0.000000 7.125000 0.000000 0.000000 2.054863 13.897315 1.502242
1.633913 18.171333 -8.658072 -2.461491 -6.474869 8.414352 0.000000 0.000000 0.000000 -16.952922 -0.142668 -9.646667 1.158750 6.833989 19.224564 0.609892 -0.921963 -14.465896 0.182608 -2.751587 -7.587825 0.000000 0.000000 0.000000 18.245839 3.017178 -13.862839 -1.579052 -7.927967 22.495423 -0.370881 -4.652009 -14.163957 -0.005812 0.490447 -1.347665 -5.981111 -1.156739 -7.221614 3.609537 -1.198084 -0.904055 7.050441 -0.700525 3.317047 -6.693434 -10.265356 -15.201114 -0.579299 -12.535272 21.773934 -0.765495 -6.439883 9.802016 0.000000 0.000000 0.000000 -1.019803 -3.274054 -0.326121 10.596508 -17.667230 1.651405 9.127437 8.297183 -33.936080 0.000000 0.000000 0.000000 -7.125000 0.000000 0.000000 -28.286149 62.013352 12.232848 0.000000 0.000000 0.000000 -5.244639 -0.958147 24.068686 -13.068952 -21.388151 -2.478376 -24.632937 -15.800022 -14.600264 0.000000 0.000000 0.000000 7.125000 0.000000 0.000000 1.954579 13.996138 1.424767
1.636451 18.172736 -8.660339 -2.546619 -6.438126 8.431202 0.000000 0.000000 0.000000 -16.856195 -0.141558 -9.694954 1.163457 6.847435 19.264234 0.612820 -0.959639 -14.490517 0.166922 -2.631645 -7.254809 0.000000 0.000000 0.000000 18.340595 3.005419 -13.856993 -1.572294 -7.911739 22.446313 -0.369492 -4.670413 -14.157818 -0.004329 0.424309 -1.165915 -5.899897 -1.160574 -7.140257 3.630452 -1.214428 -0.926354 7.024528 -0.704551 3.249688 -6.436042 -10.258036 -15.064866 -0.961770 -12.500499 21.569421 -0.910262 -6.449793 9.657090 0.000000 0.000000 0.000000 -1.034249 -3.188715 -0.483138 10.635895 -17.728040 1.663366 9.226466 8.178431 -34.005940 0.000000 0.000000 0.000000 -7.125000 0.000000 0.000000 -28.254306 62.098628 12.274775 0.000000 0.000000 0.000000 -5.251366 -0.909116 24.099251 -13.084051 -21.410259 -2.483873 -24.715176 -15.796474 -14.491365 0.000000 0.000000 0.000000 7.125000 0.000000 0.000000 1.891098 14.103879 1.374059
1.639438 18.173000 -8.660611 -2.586885 -6.418369 8.428450 0.000000 0.000000 0.000000 -16.819401 -0.141220 -9.706395 1.166872 6.857147 19.292903 0.615200 -0.965544 -14.518107 0.157646 -2.558120 -7.050869 0.000000 0.000000 0.000000 18.382478 2.960116 -13.842973 -1.566434 -7.897687 22.403715 -0.368409 -4.662840 -14.137007 -0.004120 0.413381 -1.135810 -5.872982 -1.163741 -7.084944 3.641535 -1.223896 -0.929646 7.020117 -0.707675 3.216552 -6.388814 -10.233843 -15.116907 -1.039218 -12.457435 21.640243 -0.942544 -6.434333 9.681644 0.000000 0.000000 0.000000 -1.037083 -3.091368 -0.705340 10.684186 -17.802540 1.678059 9.383059 8.022664 -34.049168 0.000000 0.000000 0.000000 -7.125000 0.000000 0.000000 -28.135720 62.175396 12.269909 0.000000 0.000000 0.000000 -5.265945 -0.902848 24.118643 -13.084590 -21.411081 -2.484051 -24.710846 -15.805039 -14.425561 0.000000 0.000000 0.000000 7.125000 0.000000 0.000000 1.889373 14.175845 1.369912
1.643003 18.173142 -8.659146 -2.554018 -6.422829 8.422613 0.000000 0.000000 0.000000 -16.872814 -0.154832 -9.702076 1.168693 6.862392 19.308199 0.614833 -0.949797 -14.517823 0.155678 -2.541551 -7.004882 0.000000 0.000000 0.000000 18.336446 2.892570 -13.842743 -1.562453 -7.888070 22.374709 -0.368515 -4.611498 -14.099908 -0.004987 0.455660 -1.252117 -5.917147 -1.171905 -7.062832 3.628415 -1.231999 -0.937265 7.030977 -0.711300 3.198147 -6.398353 -10.214054 -15.102303 -1.039855 -12.429815 21.689744 -0.938613 -6.422558 9.696545 0.000000 0.000000 0.000000 -1.037970 -3.002857 -0.824655 10.717385 -17.853792 1.688269 9.473978 7.947351 -34.033362 0.000000 0.000000 0.000000 -7.125000 0.000000 0.000000 -28.024877 62.184661 12.223530 0.000000 0.000000 0.000000 -5.271288 -0.890455 24.145428 -13.082499 -21.407974 -2.483290 -24.682986 -15.845545 -14.437249 0.000000 0.000000 0.000000 7.125000 0.000000 0.000000 1.909102 14.166591 1.384555
1.646013 18.174205 -8.658016 -2.548160 -6.434080 8.453730 0.000000 0.000000 0.000000 -16.886290 -0.140282 -9.743392 1.167874 6.860027 19.301285 0.612072 -1.000140 -14.469909 0.139786 -2.409292 -6.638309 0.000000 0.000000 0.000000 18.318097 2.886535 -13.875005 -1.562118 -7.887143 22.371929 -0.371628 -4.557069 -14.102495 -0.003384 0.373247 -1.025507 -5.917843 -1.176524 -7.066045 3.607720 -1.237302 -0.972454 7.008705 -0.711390 3.163500 -6.488228 -10.185780 -15.077781 -0.898405 -12.408705 21.835609 -0.879616 -6.404009 9.759900 0.000000 0.000000 0.000000 -1.020094 -2.943238 -0.921326 10.731304 -17.875152 1.692471 9.498743 7.910070 -34.041427 0.000000 0.000000 0.000000 -7.125000 0.000000 0.000000 -28.007389 62.197913 12.224012 0.000000 0.000000 0.000000 -5.242258 -0.804789 24.208778 -13.105086 -21.440919 -2.491505 -24.710804 -15.956864 -14.480622 0.000000 0.000000 0.000000 7.125000 0.000000 0.000000 1.893271 14.115975 1.375162
1.647437 18.174739 -8.659707 -2.543889 -6.421266 8.510233 0.000000 0.000000 0.000000 -16.885222 -0.149002 -9.806480 1.165116 6.852196 19.278327 0.609046 -1.057711 -14.417588 0.127595 -2.301892 -6.340754 0.000000 0.000000 0.000000 18.307153 2.900950 -13.950195 -1.563986 -7.891770 22.385722 -0.374654 -4.543099 -14.133905 -0.001693 0.260952 -0.717096 -5.954415 -1.189693 -7.145506 3.609856 -1.248158 -0.946204 7.030505 -0.721000 3.238156 -6.672420 -10.141022 -15.235634 -0.600405 -12.366617 22.049788 -0.764029 -6.362276 9.898444 0.000000 0.000000 0.000000 -1.040827 -3.043254 -0.956028 10.721071 -17.859403 1.689356 9.460659 7.938811 -33.980296 0.000000 0.000000 0.000000 -7.125000 0.000000 0.000000 -27.984876 62.135359 12.171957 0.000000 0.000000 0.000000 -5.248487 -0.824988 24.281031 -13.135607 -21.485588 -2.502717 -24.753871 -16.134204 -14.546913 0.000000 0.000000 0.000000 7.125000 0.000000 0.000000 1.868890 14.038739 1.360480
